<svg xmlns="http://www.w3.org/2000/svg" viewBox="0 0 1355.99 775"><defs><style>.cls-1{fill:#f9f0dc;stroke-linecap:round;}.cls-1,.cls-2,.cls-3{stroke:#000;stroke-miterlimit:10;stroke-width:5px;}.cls-2{fill:#725d29;}.cls-3,.cls-4{fill:#ccc65a;}</style></defs><title>boat_1</title><g id="Layer_2" data-name="Layer 2"><g id="Layer_1-2" data-name="Layer 1"><path class="cls-1" d="M876.06,45.37s61,268.43,23.79,349l272.79-.4S934.48,64.75,876.06,45.37Z"/><path class="cls-2" d="M854.32,12.41l9.53,532.92h46.29L873.76,11.57a9.74,9.74,0,0,0-9.71-9.07h0A9.72,9.72,0,0,0,854.32,12.41Z"/><path class="cls-2" d="M260.47,723.26c119.16,31.88,265.15,49.24,417,49.24,153.1,0,299-17.46,418.2-49.63C839.62,723.2,457.36,723.59,260.47,723.26Z"/><path class="cls-3" d="M1331.33,601.34c14.59-18.64,22-37.83,22.14-57.34h-676L3,559c3.3,16.38,11.77,32.44,25.09,48h0Z"/><path class="cls-3" d="M215.93,710.29c13.48,4.28,27.41,8.34,41.7,12.21h839.43q30-8.14,57.68-17.51c46-15.62,84.79-33.11,115.7-52.18-20.77,10.7-1155.33,17.25-1155.39,17.25C143.72,684.57,177.47,698.07,215.93,710.29Z"/><path class="cls-4" d="M1300.15,632.08a188,188,0,0,0,31.18-30.74s-33.35,32.73-54.19,47.22Q1289.56,640.51,1300.15,632.08Z"/><path class="cls-2" d="M1331.33,601.34,28.13,607h0c22,37.5,86.92,63.06,86.92,63.06h0c.06,0,1134.62-6.55,1155.39-17.25l0,0a77.56,77.56,0,0,0,6.66-4.23c20.84-14.49,54.18-47.22,54.19-47.22Z"/></g></g></svg>