<svg xmlns="http://www.w3.org/2000/svg" viewBox="0 0 140.21 331.3"><defs><style>.cls-1{fill:#ffca5f;}.cls-2{fill:#bc8200;}.cls-3,.cls-4{fill:#fff;}.cls-3,.cls-5{stroke:#000;stroke-miterlimit:10;}.cls-5{fill:#e20000;stroke-width:3px;}.cls-6{fill:#ffde39;}</style></defs><title>canibal</title><g id="Layer_2" data-name="Layer 2"><g id="Layer_1-2" data-name="Layer 1"><path d="M102.36,95.84a5.14,5.14,0,0,1,6.88-6.54c8.85,3.87,20.44,11.62,23.49,26.26,3.34,16,5.94,37.12,7.36,49.86a5.13,5.13,0,0,1-8.05,4.76h0a5.14,5.14,0,0,1-1.84-2.35Z"/><path d="M131.08,151.46a2.91,2.91,0,0,1,5.32-.77c2.83,4.69,5.65,12.06,2.26,19.82-3.7,8.5-9.4,19.1-12.92,25.45a2.91,2.91,0,0,1-5.28-.43h0a3,3,0,0,1-.08-1.69Z"/><path d="M9.42,151.46a2.91,2.91,0,0,0-5.32-.77c-2.83,4.69-5.65,12.06-2.26,19.82,3.7,8.5,9.4,19.1,12.92,25.45a2.91,2.91,0,0,0,5.28-.43h0a3,3,0,0,0,.08-1.69Z"/><path d="M37.76,94.84a5.14,5.14,0,0,0-6.88-6.54C22,92.17,10.43,99.92,7.39,114.56c-3.34,16-5.95,37.12-7.36,49.86a5.13,5.13,0,0,0,8.05,4.76h0a5.14,5.14,0,0,0,1.84-2.35Z"/><path d="M72,322.2c0,7.77-10.3,9.1-24,9.1S22.31,330,22.31,322.2s9.47-26.5,23.19-26.5S72,314.42,72,322.2Z"/><path d="M78.62,322.2c0,7.77,10.3,9.1,24,9.1s25.67-1.33,25.67-9.1-9.47-26.5-23.19-26.5S78.62,314.42,78.62,322.2Z"/><path class="cls-1" d="M71.31,196c-12.93,0-27.52-1-37.71-8.18C23,180.31,17.81,166.63,17.81,146c0-45.21,23.33-82,52-82s52,36.79,52,82C121.81,192.24,98.94,196,71.31,196Z"/><path d="M69.81,65.5c27.85,0,50.5,36.11,50.5,80.5,0,20.3-4.49,33.6-13.74,40.66-9,6.89-22.28,7.84-35.26,7.84-12.69,0-27-.94-36.85-7.91-10.19-7.2-15.15-20.48-15.15-40.59,0-44.39,22.65-80.5,50.5-80.5m0-3c-29.55,0-53.5,37.38-53.5,83.5s25.45,51.5,55,51.5,52-5.38,52-51.5-24-83.5-53.5-83.5Z"/><path class="cls-2" d="M95.92,120.22c-2.89,0-6.31-3.31-9.92-6.82C81.45,109,76.3,104,70.31,104c-5.15,0-9.75,4.37-14.2,8.59-3.45,3.28-7,6.67-9.83,6.67a3.41,3.41,0,0,1-1.82-.54c-1.5-.92.41-6.71,1.68-10.54,1.84-5.6,3.59-10.89,1.33-13.63-3.31-4-8.72-5.86-14-7.64-6.82-2.32-12.7-4.32-12.7-10.41a49.5,49.5,0,0,1,99,0c0,4.32-5.07,7.59-10,10.74-3.92,2.53-8,5.14-9.84,8.54s-1.16,7.92-.52,12.39c.69,4.78,1.34,9.3-1.08,11.13A4,4,0,0,1,95.92,120.22Z"/><path d="M70.31,28.5a48.05,48.05,0,0,1,48,48c0,3.5-4.72,6.54-9.28,9.48-4.08,2.63-8.3,5.35-10.35,9.08s-1.36,8.61-.68,13.32c.57,4,1.21,8.43-.5,9.73a2.49,2.49,0,0,1-1.58.61c-2.28,0-5.64-3.25-8.88-6.4-4.75-4.6-10.13-9.82-16.73-9.82-5.75,0-10.57,4.58-15.24,9-3.08,2.93-6.58,6.25-8.79,6.25a1.78,1.78,0,0,1-.83-.2c-.34-1.46,1.18-6.1,2.11-8.91,2-6,3.85-11.68,1.07-15.06-3.58-4.34-9.2-6.25-14.64-8.1-7.24-2.46-11.68-4.22-11.68-9a48.05,48.05,0,0,1,48-48m0-3a51,51,0,0,0-51,51c0,12.31,19.74,10.19,27,19,3.6,4.36-7.47,21.53-2.63,24.5a4.91,4.91,0,0,0,2.6.76c7.16,0,15.34-15.26,24-15.26,10,0,18.07,16.22,25.61,16.22a5.5,5.5,0,0,0,3.39-1.22c5.72-4.33-1.47-17.67,2-24,4-7.27,20-11.12,20-20a51,51,0,0,0-51-51Z"/><path class="cls-3" d="M81.53,68.61c.17,7.11,7.78-4,15.71,1.18a3.9,3.9,0,0,0,5.94-4.2,11,11,0,0,0-21.65,3Z"/><path class="cls-4" d="M63.81,70.57a9.34,9.34,0,0,1-2.87-.94,17.12,17.12,0,0,0-6.63-1.76,8.83,8.83,0,0,0-3.6.75,4.32,4.32,0,0,1-1.77.39,4.27,4.27,0,0,1-3.68-2.19,3.86,3.86,0,0,1,.15-4,10.43,10.43,0,0,1,8.9-4.93,11.41,11.41,0,0,1,2.64.32A10.47,10.47,0,0,1,64.81,68.6C64.76,70.57,64.14,70.57,63.81,70.57Z"/><path d="M54.31,58.37h0a10.91,10.91,0,0,1,2.52.3,10,10,0,0,1,7.48,9.91c0,1.49-.37,1.49-.5,1.49a9.47,9.47,0,0,1-2.67-.9,17.46,17.46,0,0,0-6.83-1.8,9.52,9.52,0,0,0-3.81.79,3.68,3.68,0,0,1-4.81-1.59,3.39,3.39,0,0,1,.14-3.51,10,10,0,0,1,8.48-4.69m0-1A11,11,0,0,0,45,62.53a4.58,4.58,0,0,0,4,7,4.94,4.94,0,0,0,2-.43,8.34,8.34,0,0,1,3.4-.71c4,0,7.59,2.7,9.5,2.7.91,0,1.46-.62,1.5-2.46A11,11,0,0,0,57.07,57.7a12.09,12.09,0,0,0-2.76-.33Z"/><path class="cls-4" d="M80.22,90.7a6.69,6.69,0,0,1-2-.67,12.43,12.43,0,0,0-4.88-1.29A12.34,12.34,0,0,0,68.44,90a6.73,6.73,0,0,1-2,.67.38.38,0,0,1-.38-.19,2.67,2.67,0,0,1-.21-1.27,7.5,7.5,0,0,1,15,0C80.81,90.7,80.41,90.7,80.22,90.7Z"/><path d="M73.31,82.24a7,7,0,0,1,7,7,2.51,2.51,0,0,1-.12,1,7.53,7.53,0,0,1-1.81-.63,12.94,12.94,0,0,0-5.07-1.33,12.94,12.94,0,0,0-5.07,1.33,7.75,7.75,0,0,1-1.82.63,2.93,2.93,0,0,1-.11-1,7,7,0,0,1,7-7m0-1a8,8,0,0,0-8,8c0,1.47.4,2,1.09,2,1.39,0,4-2,6.91-2s5.52,2,6.91,2c.69,0,1.09-.49,1.09-2a8,8,0,0,0-8-8Z"/><path class="cls-5" d="M31.63,186c24.72,5.37,51.27,5.3,79.58,0a1,1,0,0,1,.91.66L131,317.49a1,1,0,0,1-1.45,1.09L106,302.89a1,1,0,0,0-1.46.59l-3.27,14.71a1,1,0,0,1-1.68.4L83.71,299.21a1,1,0,0,0-1.58.15L71.67,318.53a1,1,0,0,1-1.69,0L56.49,292.43a1,1,0,0,0-1.6-.16L38.05,313.55a1,1,0,0,1-1.69-.38l-5-21.77a1,1,0,0,0-1.75-.28l-11,18.07a1,1,0,0,1-1.78-.49v-8.07a1,1,0,0,0-1.78-.49h0a1,1,0,0,1-1.71-.87l17.43-112.7A1,1,0,0,1,31.63,186Z"/><polygon class="cls-6" points="36.32 280.99 49.31 198.4 49.31 287.76 39.15 296.08 36.32 280.99"/><path d="M48.81,204.79v82.74l-9.33,7.63L36.83,281l12-76.2m1-12.79-14,89,3,16,11-9V192Z"/><polygon class="cls-6" points="63.32 292.91 69.83 202.63 77.3 296.87 69.9 307.96 63.32 292.91"/><path d="M69.86,209.25l6.93,87.48L70,306.92l-6.16-14.09,6-83.58m0-13.25-7,97,7,16,8-12-8-101Z"/><polygon class="cls-6" points="89.31 296.83 88.39 204.45 100.3 296.97 97.58 307.86 89.31 296.83"/><path d="M89,212.9l10.81,84-2.44,9.78-7.54-10.06L89,212.9M87.81,196l1,101,9,12,3-12-13-101Z"/><polygon class="cls-6" points="112.3 297.71 108.68 203.51 123.17 304.05 112.3 297.71"/><path d="M109.54,213l13,90.06-9.74-5.68L109.54,213m-1.73-19,4,104,12,7-16-111Z"/><polygon class="cls-6" points="33.09 204.1 25.33 287.77 17.57 295.54 33.09 204.1"/><path d="M31.37,217.21l-6.52,70.34-6.53,6.52,13.05-76.86M34.81,191l-18,106,9-9,9-97Z"/><path d="M42.15,34s-2.34,0-7.34-17l-5-17s-6,40,0,45.51Z"/><path d="M97.14,34s2.35,0,7.35-17l5-17s6,40,0,45.51Z"/></g></g></svg>