<?xml version="1.0" standalone="no"?>
<!DOCTYPE svg PUBLIC "-//W3C//DTD SVG 20010904//EN"
 "http://www.w3.org/TR/2001/REC-SVG-20010904/DTD/svg10.dtd">
<svg version="1.0" xmlns="http://www.w3.org/2000/svg"
 width="69.000000pt" height="112.000000pt" viewBox="0 0 69.000000 112.000000"
 preserveAspectRatio="xMidYMid meet">

<g transform="translate(0.000000,112.000000) scale(0.100000,-0.100000)"
fill="#000000" stroke="none">
<path d="M125 1055 c4 -22 6 -47 6 -55 -13 -139 -12 -161 9 -203 12 -23 33
-52 48 -64 31 -26 13 -31 -24 -7 -13 9 -26 15 -28 13 -7 -8 -65 -139 -61 -139
2 0 15 4 29 10 21 8 26 6 26 -6 0 -12 4 -13 21 -3 20 10 21 9 15 -17 -8 -31
-91 -134 -107 -134 -13 0 -39 -26 -39 -38 0 -6 7 -13 17 -16 10 -4 35 9 72 37
31 24 61 47 68 51 9 5 12 -20 12 -101 -1 -108 13 -241 31 -304 9 -31 8 -36
-17 -56 l-28 -23 52 0 51 0 -1 58 c-1 31 -1 99 1 150 2 74 5 92 17 92 12 0 15
-19 17 -102 2 -57 2 -124 1 -150 l-2 -48 52 0 52 0 -29 23 c-17 14 -26 29 -22
35 17 28 39 198 39 310 0 67 2 122 4 122 2 0 27 -18 55 -41 47 -37 53 -39 59
-22 7 16 8 16 8 -4 1 -29 18 -38 26 -13 10 32 -4 63 -26 57 -13 -3 -28 7 -52
37 -58 70 -75 117 -37 96 16 -9 20 -8 20 4 0 13 5 14 26 5 15 -5 28 -8 30 -7
2 3 -54 127 -62 137 -2 2 -15 -4 -28 -13 -42 -27 -49 -18 -13 17 20 21 40 56
52 92 15 49 16 64 6 104 -15 55 -15 64 -6 116 l7 40 -23 -28 -24 -27 -49 25
c-27 14 -64 25 -81 25 -17 0 -54 -11 -81 -25 l-49 -25 -24 27 -23 28 7 -40z
m113 -186 c28 -17 28 -36 1 -44 -26 -9 -55 18 -65 60 -7 29 -7 29 17 14 13 -9
34 -22 47 -30z m182 22 c0 -11 -10 -32 -23 -47 -18 -20 -29 -25 -45 -20 -33
11 -27 28 21 58 50 33 47 33 47 9z m-90 -124 c0 -9 -11 -12 -35 -9 -19 2 -35
8 -35 13 0 5 16 9 35 9 22 0 35 -5 35 -13z"/>
</g>
</svg>
