<svg xmlns="http://www.w3.org/2000/svg" viewBox="0 0 139.59 286.6"><defs><style>.cls-1,.cls-5{fill:#bc0000;}.cls-1,.cls-2,.cls-3,.cls-6{stroke:#000;stroke-miterlimit:10;}.cls-2{fill:#fff;}.cls-3{fill:#f9bd00;}.cls-4{fill:#020202;}.cls-6{fill:none;stroke-width:4px;}.cls-7{fill:#a6a6a6;}.cls-8{fill:#666;}</style></defs><title>canni_1</title><g id="Layer_2" data-name="Layer 2"><g id="Layer_1-2" data-name="Layer 1"><ellipse class="cls-1" cx="86.71" cy="170.6" rx="37.5" ry="82.5"/><circle class="cls-1" cx="87.21" cy="59.1" r="45"/><path class="cls-1" d="M70.62,17.27S55.21,12.1,55.21,2.1,51,32.35,51,32.35Z"/><path class="cls-1" d="M104,17.27S119.43,12.1,119.43,2.1s4.19,30.25,4.19,30.25Z"/><path class="cls-2" d="M102.21,77.1a15,15,0,0,1-30,0c0-8.29,6.71-3,15-3S102.21,68.81,102.21,77.1Z"/><circle class="cls-3" cx="68.21" cy="42.1" r="7"/><ellipse class="cls-4" cx="68.21" cy="42.1" rx="2.5" ry="6.5"/><circle class="cls-3" cx="107.21" cy="42.1" r="7"/><ellipse class="cls-4" cx="107.21" cy="42.1" rx="2.5" ry="6.5"/><polygon points="78.13 72.73 78.21 78.1 76.21 73.1 75.64 72.44 78.13 72.73"/><polygon points="95.72 72.73 95.64 78.1 97.64 73.1 98.21 72.44 95.72 72.73"/><path class="cls-1" d="M80.37,274.76a47.72,47.72,0,0,0,1.84-13.66c0-12.15-3.81-22-8.5-22s-8.5,9.85-8.5,22a52.11,52.11,0,0,0,.77,9.14c-1.23-.09-2.48-.14-3.77-.14-11.05,0-20,3.58-20,8s8.95,8,20,8,20-3.59,20-8A4.54,4.54,0,0,0,80.37,274.76Z"/><path class="cls-1" d="M95.05,274.76a47.72,47.72,0,0,1-1.84-13.66c0-12.15,3.8-22,8.5-22s8.5,9.85,8.5,22a53.09,53.09,0,0,1-.77,9.14c1.22-.09,2.48-.14,3.77-.14,11,0,20,3.58,20,8s-9,8-20,8-20-3.59-20-8A4.54,4.54,0,0,1,95.05,274.76Z"/><ellipse class="cls-1" cx="125.62" cy="141.16" rx="9" ry="26.71" transform="translate(-45.32 60.62) rotate(-23.11)"/><ellipse class="cls-1" cx="123.62" cy="175.16" rx="26.71" ry="9" transform="translate(-89.88 194.64) rotate(-60)"/><ellipse class="cls-1" cx="47.62" cy="141.16" rx="26.71" ry="9" transform="translate(-98.44 111.82) rotate(-60)"/><ellipse class="cls-1" cx="30.49" cy="140.81" rx="9.44" ry="24.91" transform="translate(-43.03 16.91) rotate(-18.47)"/><line class="cls-5" x1="18.21" y1="42.1" x2="18.21" y2="226.1"/><line class="cls-6" x1="18.21" y1="70.34" x2="18.21" y2="205.37"/><polygon points="18.21 42.1 1.95 81.89 18.21 72.45 34.47 81.89 18.21 42.1"/><path class="cls-7" d="M18.2,207a64.3,64.3,0,0,0,18.2,17.47V191c-7.59-4.5-13.56-11.5-18.2-18.95Z"/><path class="cls-8" d="M18.2,172A58,58,0,0,1,0,191v33.39A63.2,63.2,0,0,0,18.2,207Z"/><path d="M36.4,189c-7.59-4.5-13.56-11.5-18.2-18.94A58.11,58.11,0,0,1,0,189v4.49a63.33,63.33,0,0,0,18.2-17.39,64.12,64.12,0,0,0,18.2,17.46Z"/><path d="M36.4,199.86c-7.59-4.49-13.56-11.5-18.2-18.94A58,58,0,0,1,0,199.86v4.49A63.2,63.2,0,0,0,18.2,187a64.12,64.12,0,0,0,18.2,17.46Z"/><path d="M36.4,210.69c-7.59-4.49-13.56-11.49-18.2-18.93A57.88,57.88,0,0,1,0,210.69v4.5A63.2,63.2,0,0,0,18.2,197.8a64.26,64.26,0,0,0,18.2,17.46Z"/><path d="M36.4,221.53C28.81,217,22.84,210,18.2,202.59A58,58,0,0,1,0,221.53V226a63.06,63.06,0,0,0,18.2-17.39A64.16,64.16,0,0,0,36.4,226.1Z"/></g></g></svg>