<svg xmlns="http://www.w3.org/2000/svg" viewBox="0 0 109.64 281.35"><defs><style>.cls-1{fill:#353535;}.cls-2{fill:#edcc72;}.cls-2,.cls-3{stroke:#000;}.cls-2,.cls-3,.cls-4{stroke-miterlimit:10;}.cls-3{fill:#fff;}.cls-4{stroke:#fff;}</style></defs><title>miss</title><g id="Layer_2" data-name="Layer 2"><g id="Layer_1-2" data-name="Layer 1"><path class="cls-1" d="M20.31,211.5l0,48.69A5.81,5.81,0,0,0,26.08,266H42.47a5.8,5.8,0,0,0,5.8-5.8V211.5Z"/><path class="cls-1" d="M66.59,211.5l-.28,48.3a6.16,6.16,0,0,0,6.17,6.2H88.1a6.17,6.17,0,0,0,6.17-6.17V211.5Z"/><path class="cls-1" d="M82.27,91l9,64h15.4a3,3,0,0,0,2.7-4.19Z"/><path class="cls-1" d="M27.23,90,.28,150.49A3.21,3.21,0,0,0,3.21,155H20.27Z"/><path d="M27.23,90,6.42,239.36a4.08,4.08,0,0,0,4,4.64H99.71a3.54,3.54,0,0,0,3.5-4L82.31,90Z"/><circle class="cls-2" cx="54.77" cy="49.5" r="49"/><path d="M50.27,273c0,4.61-7.16,8.35-16,8.35s-16-3.74-16-8.35,7.16-17,16-17S50.27,268.39,50.27,273Z"/><path d="M96.27,273c0,4.61-7.16,8.35-16,8.35s-16-3.74-16-8.35,7.16-17,16-17S96.27,268.39,96.27,273Z"/><path class="cls-3" d="M69.77,67.5a15,15,0,1,1-30,0c0-8.28,6.72-3,15-3S69.77,59.22,69.77,67.5Z"/><circle class="cls-3" cx="71.77" cy="36.5" r="8"/><circle class="cls-3" cx="39.77" cy="36.5" r="8"/><circle class="cls-4" cx="39.77" cy="36.5" r="3"/><circle class="cls-4" cx="71.77" cy="36.5" r="3"/></g></g></svg>