<?xml version="1.0" standalone="no"?>
<!DOCTYPE svg PUBLIC "-//W3C//DTD SVG 20010904//EN"
 "http://www.w3.org/TR/2001/REC-SVG-20010904/DTD/svg10.dtd">
<svg version="1.0" xmlns="http://www.w3.org/2000/svg"
 width="62.000000pt" height="107.000000pt" viewBox="0 0 62.000000 107.000000"
 preserveAspectRatio="xMidYMid meet">

<g transform="translate(0.000000,107.000000) scale(0.100000,-0.100000)"
fill="#000000" stroke="none">
<path d="M263 1040 c-46 -21 -69 -50 -79 -98 -8 -42 5 -41 35 3 27 39 33 42
52 19 17 -21 75 -50 119 -59 53 -12 70 -27 77 -67 3 -21 10 -35 14 -32 5 3 7
9 4 14 -3 5 -1 11 5 15 5 3 10 35 10 70 0 54 -4 68 -27 96 -50 59 -130 74
-210 39z"/>
<path d="M220 880 c0 -5 5 -10 10 -10 6 0 10 5 10 10 0 6 -4 10 -10 10 -5 0
-10 -4 -10 -10z"/>
<path d="M360 860 c0 -5 5 -10 10 -10 6 0 10 5 10 10 0 6 -4 10 -10 10 -5 0
-10 -4 -10 -10z"/>
<path d="M180 795 c0 -25 -6 -58 -14 -73 -7 -15 -17 -38 -21 -52 l-7 -25 17
23 c9 12 20 22 24 22 14 0 29 -51 36 -118 11 -116 41 -191 96 -244 40 -39 56
-48 84 -48 52 0 62 33 35 119 -19 61 -24 68 -70 94 -50 28 -72 53 -84 92 -5
16 2 23 39 38 25 11 56 32 69 48 14 16 29 29 34 29 5 0 31 -23 57 -51 l48 -51
-5 38 c-8 56 -58 158 -71 145 -18 -18 -63 -12 -83 10 -36 40 -71 51 -110 37
-27 -10 -39 -10 -54 0 -19 11 -20 9 -20 -33z m131 -6 c16 -8 18 -13 8 -25 -22
-27 -89 -7 -89 27 0 12 57 11 81 -2z"/>
<path d="M385 20 c-4 -6 3 -10 14 -10 25 0 27 6 6 13 -8 4 -17 2 -20 -3z"/>
<path d="M228 13 c7 -3 16 -2 19 1 4 3 -2 6 -13 5 -11 0 -14 -3 -6 -6z"/>
</g>
</svg>
