<svg xmlns="http://www.w3.org/2000/svg" viewBox="0 0 117 312.22"><defs><style>.cls-1{fill:#00aad8;}.cls-1,.cls-3{stroke:#000;stroke-miterlimit:10;}.cls-2{fill:#353535;}.cls-3{fill:#edcc72;}.cls-4{fill:#fff;}</style></defs><title>saint</title><g id="Layer_2" data-name="Layer 2"><g id="Layer_1-2" data-name="Layer 1"><path class="cls-1" d="M109.54,138.71a28.94,28.94,0,0,0-4.14-3.4,34.64,34.64,0,0,0-14.22-5.47l-32.13-5v-.18l-.55.09-.55-.09v.18l-32.13,5a34.64,34.64,0,0,0-14.22,5.47,28.94,28.94,0,0,0-4.14,3.4c-5,5-6.62,58.6-7,73.54a3.77,3.77,0,0,0,3.77,3.85h7.86a3.77,3.77,0,0,0,3.76-3.53L19.06,163c0-.08.12-.07.12,0v59.48a4.2,4.2,0,0,0,4.2,4.2H93.62a4.2,4.2,0,0,0,4.2-4.2V163c0-.08.12-.09.12,0l3.17,49.61a3.77,3.77,0,0,0,3.76,3.53h7.86a3.77,3.77,0,0,0,3.77-3.85C116.16,197.31,114.58,143.75,109.54,138.71Z"/><path class="cls-2" d="M29.12,241.32l0,60.35c0,4,2.07,7.2,4.62,7.2h13c2.55,0,4.62-3.22,4.62-7.19V241.32Z"/><path class="cls-2" d="M65.91,241.32l-.23,59.86c0,4.24,2.19,7.69,4.91,7.69H83c2.71,0,4.9-3.42,4.9-7.65v-59.9Z"/><path d="M52.94,307c0,2.86-5.7,5.18-12.72,5.18S27.5,309.9,27.5,307s5.69-10.57,12.72-10.57S52.94,304.17,52.94,307Z"/><path d="M89.5,307c0,2.86-5.69,5.18-12.72,5.18S64.06,309.9,64.06,307s5.7-10.57,12.72-10.57S89.5,304.17,89.5,307Z"/><path class="cls-3" d="M110.8,57.15c0,29.27-23.73,70-53,70s-53-40.73-53-70,23.72-37,53-37S110.8,27.88,110.8,57.15Z"/><path d="M5.8,75.15s2,3,3,0-1-15,1-18,9-9,10-13,3-19,0-19S-8.2,33.15,5.8,75.15Z"/><path d="M25.3,34.65s64-6,67,0,4,18,11,24,11,7,11,7,4-25-3-31l-7-6s7,0,7,3,4-20-6-22-57-24-84,6S25.3,34.65,25.3,34.65Z"/><path class="cls-4" d="M57.3,109a11.53,11.53,0,0,1-11.48-10.9L57.31,98H68.79A11.52,11.52,0,0,1,57.3,109Z"/><path d="M68.25,98.53a11,11,0,0,1-21.89.09l10.94-.09h11m1-1h-12l-12,.1a12,12,0,0,0,24-.1Z"/><path d="M42.35,77.88c-12.41,0-14-12.87-14-13l2.21-.25c.05.45,1.38,11,11.79,11a9.08,9.08,0,0,0,7-2.61c2.93-3.14,2.61-8.16,2.61-8.21l2.22-.16c0,.24.4,6-3.19,9.87C48.9,76.76,46,77.88,42.35,77.88Z"/><path d="M71.29,77.88c12.42,0,14-12.87,14-13l-2.22-.25c0,.45-1.38,11-11.79,11a9.07,9.07,0,0,1-7-2.61c-2.94-3.14-2.62-8.16-2.62-8.21l-2.21-.16c0,.24-.41,6,3.19,9.87C64.75,76.76,67.64,77.88,71.29,77.88Z"/><path class="cls-1" d="M58,127.15s22-3.34,23-8.67,9,13.67,9,13.67L73.1,145a4.36,4.36,0,0,1-6.49-1.44Z"/><path class="cls-1" d="M58,127.15s-22-3.34-23-8.67-9,13.67-9,13.67L42.9,145a4.36,4.36,0,0,0,6.49-1.44Z"/><path class="cls-2" d="M58.5,222.65l-39,0v0c0,15.36,17.61,28,39,28s39-12.65,39-28Z"/><circle cx="58.5" cy="138.65" r="3"/><circle cx="58.5" cy="146.65" r="3"/><circle cx="58.5" cy="154.65" r="3"/></g></g></svg>